<?xml version="1.0" encoding="UTF-8"?> <svg xmlns="http://www.w3.org/2000/svg" width="435" height="270" viewBox="0 0 435 270" fill="none"> <g filter="url(#filter0_f_9_8)"> <rect x="88" y="88" width="259" height="94" rx="47" fill="#3299FA"></rect> </g> <rect x="88" y="88" width="259" height="94" rx="47" fill="#3299FA"></rect> <path d="M167.27 146H162.136V126.008H156.186C156.05 127.051 155.903 128.184 155.744 129.408C155.608 130.632 155.449 131.879 155.268 133.148C155.109 134.395 154.939 135.585 154.758 136.718C154.577 137.829 154.395 138.815 154.214 139.676C153.919 141.081 153.523 142.283 153.024 143.28C152.548 144.277 151.879 145.037 151.018 145.558C150.179 146.079 149.08 146.34 147.72 146.34C147.267 146.34 146.836 146.306 146.428 146.238C146.02 146.17 145.635 146.079 145.272 145.966V141.75C145.567 141.841 145.85 141.92 146.122 141.988C146.417 142.056 146.734 142.09 147.074 142.09C147.527 142.09 147.901 141.943 148.196 141.648C148.491 141.353 148.751 140.855 148.978 140.152C149.205 139.427 149.431 138.429 149.658 137.16C149.771 136.616 149.907 135.845 150.066 134.848C150.225 133.828 150.406 132.638 150.61 131.278C150.837 129.895 151.063 128.399 151.29 126.79C151.517 125.158 151.732 123.469 151.936 121.724H167.27V146ZM180.636 127.096C182.359 127.096 183.832 127.425 185.056 128.082C186.303 128.739 187.266 129.691 187.946 130.938C188.626 132.185 188.966 133.715 188.966 135.528V137.976H176.998C177.043 139.404 177.463 140.526 178.256 141.342C179.072 142.158 180.194 142.566 181.622 142.566C182.823 142.566 183.911 142.453 184.886 142.226C185.861 141.977 186.869 141.603 187.912 141.104V145.014C187.005 145.467 186.042 145.796 185.022 146C184.025 146.227 182.812 146.34 181.384 146.34C179.525 146.34 177.882 146 176.454 145.32C175.026 144.617 173.904 143.563 173.088 142.158C172.272 140.753 171.864 138.985 171.864 136.854C171.864 134.678 172.227 132.876 172.952 131.448C173.7 129.997 174.731 128.909 176.046 128.184C177.361 127.459 178.891 127.096 180.636 127.096ZM180.67 130.7C179.695 130.7 178.879 131.017 178.222 131.652C177.587 132.287 177.213 133.273 177.1 134.61H184.206C184.206 133.862 184.07 133.193 183.798 132.604C183.549 132.015 183.163 131.55 182.642 131.21C182.121 130.87 181.463 130.7 180.67 130.7ZM208.442 131.244H202.356V146H197.29V131.244H191.204V127.436H208.442V131.244ZM219.083 146.34C217.247 146.34 215.683 146.011 214.391 145.354C213.099 144.674 212.113 143.631 211.433 142.226C210.753 140.821 210.413 139.019 210.413 136.82C210.413 134.553 210.798 132.706 211.569 131.278C212.339 129.85 213.405 128.796 214.765 128.116C216.147 127.436 217.734 127.096 219.525 127.096C220.794 127.096 221.893 127.221 222.823 127.47C223.775 127.719 224.602 128.014 225.305 128.354L223.809 132.264C223.015 131.947 222.267 131.686 221.565 131.482C220.885 131.278 220.205 131.176 219.525 131.176C218.641 131.176 217.904 131.391 217.315 131.822C216.725 132.23 216.283 132.853 215.989 133.692C215.717 134.508 215.581 135.539 215.581 136.786C215.581 138.01 215.728 139.03 216.023 139.846C216.34 140.639 216.793 141.24 217.383 141.648C217.972 142.033 218.686 142.226 219.525 142.226C220.59 142.226 221.531 142.09 222.347 141.818C223.163 141.523 223.956 141.127 224.727 140.628V144.946C223.956 145.445 223.14 145.796 222.279 146C221.44 146.227 220.375 146.34 219.083 146.34ZM250.318 127.436V131.244H242.566V146H237.5V127.436H250.318ZM270.268 136.684C270.268 138.225 270.053 139.597 269.622 140.798C269.214 141.999 268.613 143.019 267.82 143.858C267.049 144.674 266.109 145.297 264.998 145.728C263.887 146.136 262.629 146.34 261.224 146.34C259.932 146.34 258.731 146.136 257.62 145.728C256.532 145.297 255.591 144.674 254.798 143.858C254.005 143.019 253.381 141.999 252.928 140.798C252.497 139.597 252.282 138.225 252.282 136.684C252.282 134.621 252.645 132.887 253.37 131.482C254.095 130.054 255.138 128.966 256.498 128.218C257.858 127.47 259.467 127.096 261.326 127.096C263.071 127.096 264.613 127.47 265.95 128.218C267.287 128.966 268.341 130.054 269.112 131.482C269.883 132.887 270.268 134.621 270.268 136.684ZM257.45 136.684C257.45 137.908 257.575 138.939 257.824 139.778C258.096 140.594 258.515 141.217 259.082 141.648C259.649 142.056 260.385 142.26 261.292 142.26C262.199 142.26 262.924 142.056 263.468 141.648C264.035 141.217 264.443 140.594 264.692 139.778C264.964 138.939 265.1 137.908 265.1 136.684C265.1 135.46 264.964 134.44 264.692 133.624C264.443 132.808 264.035 132.196 263.468 131.788C262.901 131.38 262.165 131.176 261.258 131.176C259.921 131.176 258.946 131.641 258.334 132.57C257.745 133.477 257.45 134.848 257.45 136.684ZM271.471 127.436H277.013L280.515 137.874C280.628 138.214 280.719 138.554 280.787 138.894C280.877 139.234 280.945 139.585 280.991 139.948C281.059 140.311 281.104 140.696 281.127 141.104H281.229C281.297 140.515 281.387 139.959 281.501 139.438C281.637 138.894 281.784 138.373 281.943 137.874L285.377 127.436H290.817L282.963 148.38C282.487 149.649 281.863 150.715 281.093 151.576C280.345 152.437 279.472 153.083 278.475 153.514C277.477 153.945 276.389 154.16 275.211 154.16C274.644 154.16 274.145 154.126 273.715 154.058C273.307 154.013 272.944 153.956 272.627 153.888V149.876C272.876 149.921 273.171 149.967 273.511 150.012C273.873 150.057 274.247 150.08 274.633 150.08C275.335 150.08 275.936 149.933 276.435 149.638C276.956 149.343 277.387 148.935 277.727 148.414C278.067 147.915 278.339 147.371 278.543 146.782L278.849 145.864L271.471 127.436Z" fill="white"></path> <defs> <filter id="filter0_f_9_8" x="0" y="0" width="435" height="270" filterUnits="userSpaceOnUse" color-interpolation-filters="sRGB"> <feFlood flood-opacity="0" result="BackgroundImageFix"></feFlood> <feBlend mode="normal" in="SourceGraphic" in2="BackgroundImageFix" result="shape"></feBlend> <feGaussianBlur stdDeviation="44" result="effect1_foregroundBlur_9_8"></feGaussianBlur> </filter> </defs> </svg> 