<?xml version="1.0" encoding="UTF-8"?> <svg xmlns="http://www.w3.org/2000/svg" width="572" height="94" viewBox="0 0 572 94" fill="none"> <path d="M0.295395 75.091C0.667395 74.223 1.65939 71.991 3.27139 68.395C4.88339 64.861 7.02239 60.211 9.6884 54.445C12.3544 48.617 15.3924 41.921 18.8024 34.357C22.2124 26.793 25.9014 18.609 29.8694 9.805C30.1174 9.309 30.3344 8.751 30.5204 8.131C30.7064 7.449 30.7994 6.798 30.7994 6.178C30.7994 5.558 30.5824 5.031 30.1484 4.597C29.7764 4.163 29.0014 3.946 27.8234 3.946C25.2194 3.946 23.0494 4.814 21.3134 6.55C19.6394 8.224 18.3994 10.301 17.5934 12.781C16.7874 15.261 16.3844 17.741 16.3844 20.221C16.3844 20.779 16.3844 21.337 16.3844 21.895C16.4464 22.453 16.5394 23.011 16.6634 23.569C15.3614 23.569 14.3074 23.166 13.5014 22.36C12.6954 21.492 12.1064 20.438 11.7344 19.198C11.3624 17.896 11.1764 16.718 11.1764 15.664C11.1764 13.68 11.7344 11.758 12.8504 9.898C13.9664 8.038 15.4234 6.364 17.2214 4.876C19.0194 3.326 21.0034 2.148 23.1734 1.342C25.3434 0.473997 27.4824 0.0399973 29.5904 0.0399973C31.7604 0.0399973 33.5584 0.628997 34.9844 1.807C36.4724 2.985 37.5884 5.124 38.3324 8.224C39.1384 11.324 39.5414 15.788 39.5414 21.616C39.5414 25.522 39.3864 29.614 39.0764 33.892C38.8284 38.17 38.5494 42.324 38.2394 46.354C37.9294 50.322 37.7124 53.887 37.5884 57.049C38.7044 53.329 40.1614 49.361 41.9594 45.145C43.8194 40.867 45.8344 36.651 48.0044 32.497C50.1744 28.281 52.3134 24.344 54.4214 20.686C56.5294 17.028 58.4204 13.835 60.0944 11.107C61.8304 8.379 63.1324 6.395 64.0004 5.155C64.8684 3.853 65.6124 2.892 66.2324 2.272C66.8524 1.59 67.6894 1.249 68.7434 1.249C69.6114 1.249 70.7274 1.497 72.0914 1.99299C71.6574 3.10899 71.0374 4.845 70.2314 7.201C69.4874 9.495 68.7124 12.285 67.9064 15.571C66.9144 19.291 65.9224 23.507 64.9304 28.219C64.0004 32.869 63.1014 37.612 62.2334 42.448C61.4274 47.284 60.7764 51.841 60.2804 56.119C59.8464 60.335 59.6294 63.962 59.6294 67C59.6294 68.426 59.6914 69.542 59.8154 70.348C59.9394 71.154 60.1254 71.867 60.3734 72.487C60.6214 73.169 60.8694 74.037 61.1174 75.091C58.8854 75.091 57.1494 74.719 55.9094 73.975C54.7314 73.293 53.9254 72.146 53.4914 70.534C53.1194 68.922 52.9334 66.783 52.9334 64.117C52.9334 56.925 53.8014 49.237 55.5374 41.053C57.3354 32.869 59.4124 24.406 61.7684 15.664C59.9704 18.02 58.1104 20.934 56.1884 24.406C54.2664 27.878 52.3444 31.598 50.4224 35.566C48.5624 39.534 46.7644 43.502 45.0284 47.47C43.2924 51.376 41.7734 55.003 40.4714 58.351C39.1694 61.699 38.1464 64.489 37.4024 66.721C36.9684 66.845 36.6584 66.938 36.4724 67C36.3484 67.062 36.1314 67.093 35.8214 67.093C33.9614 67.093 32.7524 66.008 32.1944 63.838C31.6984 61.606 31.4504 58.537 31.4504 54.631C31.4504 52.151 31.5124 49.299 31.6364 46.075C31.7604 42.789 31.8844 39.441 32.0084 36.031C32.1944 32.559 32.3494 29.211 32.4734 25.987C32.5974 22.701 32.6594 19.787 32.6594 17.245C32.6594 16.129 32.6284 15.168 32.5664 14.362C32.5664 13.494 32.5354 12.688 32.4734 11.944C27.6374 23.29 23.5454 32.993 20.1974 41.053C16.9114 49.051 14.1214 55.561 11.8274 60.583C9.53339 65.605 7.48739 69.263 5.68939 71.557C3.89139 73.913 2.09339 75.091 0.295395 75.091ZM81.6682 71.092C77.8242 71.092 74.9102 70.038 72.9262 67.93C70.9422 65.822 69.9502 63.218 69.9502 60.118C69.9502 57.39 70.6322 54.476 71.9962 51.376C73.4222 48.276 75.2822 45.362 77.5762 42.634C79.9322 39.906 82.5052 37.705 85.2952 36.031C88.1472 34.357 90.9682 33.52 93.7582 33.52C95.2462 33.52 96.6102 33.923 97.8502 34.729C99.1522 35.473 99.8032 37.023 99.8032 39.379C99.8032 41.735 99.1212 43.936 97.7572 45.982C96.3932 48.028 94.5642 49.857 92.2702 51.469C89.9762 53.081 87.4652 54.414 84.7372 55.468C82.0712 56.46 79.3742 57.111 76.6462 57.421C76.5222 57.917 76.4292 58.413 76.3672 58.909C76.3672 59.343 76.3672 59.808 76.3672 60.304C76.3672 61.048 76.4292 61.854 76.5532 62.722C76.7392 63.59 77.0802 64.427 77.5762 65.233C78.1342 66.039 78.8782 66.69 79.8082 67.186C80.8002 67.682 82.0712 67.93 83.6212 67.93C86.2872 67.93 88.9222 67.186 91.5262 65.698C94.1302 64.21 96.5482 62.257 98.7802 59.839C101.074 57.359 102.996 54.631 104.546 51.655L105.941 52.678C104.267 56.398 102.128 59.653 99.5242 62.443C96.9202 65.171 94.0682 67.279 90.9682 68.767C87.9302 70.317 84.8302 71.092 81.6682 71.092ZM77.2972 55.096C78.9712 54.662 80.8312 53.918 82.8772 52.864C84.9232 51.81 86.9072 50.57 88.8292 49.144C90.7512 47.656 92.3322 46.044 93.5722 44.308C94.8122 42.51 95.4322 40.65 95.4322 38.728C95.4322 38.046 95.3082 37.55 95.0602 37.24C94.8122 36.93 94.3162 36.775 93.5722 36.775C92.1462 36.775 90.5962 37.333 88.9222 38.449C87.3102 39.503 85.7292 40.929 84.1792 42.727C82.6912 44.525 81.3272 46.509 80.0872 48.679C78.8472 50.787 77.9172 52.926 77.2972 55.096ZM119.048 69.418C116.878 69.418 115.142 68.829 113.84 67.651C112.6 66.535 111.98 65.047 111.98 63.187C111.98 61.327 112.414 59.405 113.282 57.421C114.15 55.375 114.987 53.36 115.793 51.376C116.661 49.392 117.095 47.625 117.095 46.075C117.095 44.277 116.568 42.913 115.514 41.983C114.46 40.991 113.313 40.123 112.073 39.379C110.709 42.913 109.221 46.323 107.609 49.609C105.997 52.833 104.695 55.313 103.703 57.049L102.68 55.096C103.548 53.484 104.664 51.159 106.028 48.121C107.454 45.021 108.849 41.549 110.213 37.705C109.593 37.085 109.283 36.31 109.283 35.38C109.283 33.582 109.779 32.063 110.771 30.823C111.825 29.583 112.662 28.963 113.282 28.963C114.026 28.963 114.46 29.304 114.584 29.986C114.77 30.606 114.863 31.071 114.863 31.381C114.863 31.691 114.708 32.28 114.398 33.148C114.088 34.016 113.902 34.574 113.84 34.822C113.902 35.628 114.398 36.403 115.328 37.147C116.32 37.829 117.436 38.604 118.676 39.472C119.978 40.34 121.094 41.425 122.024 42.727C123.016 44.029 123.512 45.672 123.512 47.656C123.512 49.454 123.109 51.314 122.303 53.236C121.559 55.158 120.784 56.956 119.978 58.63C119.234 60.304 118.862 61.792 118.862 63.094C118.862 64.086 119.11 64.768 119.606 65.14C120.164 65.45 120.784 65.605 121.466 65.605C122.954 65.605 124.473 65.171 126.023 64.303C127.635 63.373 129.185 62.195 130.673 60.769C132.223 59.343 133.587 57.855 134.765 56.305C135.943 54.693 136.811 53.205 137.369 51.841L138.95 53.05C137.772 55.654 136.129 58.227 134.021 60.769C131.913 63.311 129.557 65.388 126.953 67C124.411 68.612 121.776 69.418 119.048 69.418ZM151.835 69.418C149.665 69.418 147.929 68.829 146.627 67.651C145.387 66.535 144.767 65.047 144.767 63.187C144.767 61.327 145.201 59.405 146.069 57.421C146.937 55.375 147.774 53.36 148.58 51.376C149.448 49.392 149.882 47.625 149.882 46.075C149.882 44.277 149.355 42.913 148.301 41.983C147.247 40.991 146.1 40.123 144.86 39.379C143.496 42.913 142.008 46.323 140.396 49.609C138.784 52.833 137.482 55.313 136.49 57.049L135.467 55.096C136.335 53.484 137.451 51.159 138.815 48.121C140.241 45.021 141.636 41.549 143 37.705C142.38 37.085 142.07 36.31 142.07 35.38C142.07 33.582 142.566 32.063 143.558 30.823C144.612 29.583 145.449 28.963 146.069 28.963C146.813 28.963 147.247 29.304 147.371 29.986C147.557 30.606 147.65 31.071 147.65 31.381C147.65 31.691 147.495 32.28 147.185 33.148C146.875 34.016 146.689 34.574 146.627 34.822C146.689 35.628 147.185 36.403 148.115 37.147C149.107 37.829 150.223 38.604 151.463 39.472C152.765 40.34 153.881 41.425 154.811 42.727C155.803 44.029 156.299 45.672 156.299 47.656C156.299 49.454 155.896 51.314 155.09 53.236C154.346 55.158 153.571 56.956 152.765 58.63C152.021 60.304 151.649 61.792 151.649 63.094C151.649 64.086 151.897 64.768 152.393 65.14C152.951 65.45 153.571 65.605 154.253 65.605C155.741 65.605 157.26 65.171 158.81 64.303C160.422 63.373 161.972 62.195 163.46 60.769C165.01 59.343 166.374 57.855 167.552 56.305C168.73 54.693 169.598 53.205 170.156 51.841L171.737 53.05C170.559 55.654 168.916 58.227 166.808 60.769C164.7 63.311 162.344 65.388 159.74 67C157.198 68.612 154.563 69.418 151.835 69.418ZM172.345 93.04C170.795 93.04 169.4 92.606 168.16 91.738C166.92 90.87 166.3 89.537 166.3 87.739C166.3 85.755 166.827 83.988 167.881 82.438C168.935 80.888 170.33 79.431 172.066 78.067C173.802 76.765 175.755 75.525 177.925 74.347C180.095 73.231 182.296 72.146 184.528 71.092C185.334 68.922 186.171 66.442 187.039 63.652C187.907 60.862 188.713 57.948 189.457 54.91C187.473 57.948 185.365 60.583 183.133 62.815C180.901 65.047 178.514 66.163 175.972 66.163C174.794 66.163 173.616 65.915 172.438 65.419C171.26 64.861 170.268 64.024 169.462 62.908C168.718 61.792 168.346 60.335 168.346 58.537C168.346 56.863 168.625 54.879 169.183 52.585C169.803 50.291 170.547 48.059 171.415 45.889C172.283 43.657 173.182 41.828 174.112 40.402C175.104 38.976 175.941 38.263 176.623 38.263C176.933 38.263 177.429 38.387 178.111 38.635C178.793 38.821 179.444 39.1 180.064 39.472C180.684 39.844 181.025 40.247 181.087 40.681C180.529 41.487 179.909 42.634 179.227 44.122C178.545 45.548 177.863 47.16 177.181 48.958C176.561 50.756 176.034 52.492 175.6 54.166C175.166 55.84 174.949 57.297 174.949 58.537C174.949 59.591 175.166 60.459 175.6 61.141C176.096 61.823 176.933 62.164 178.111 62.164C179.351 62.164 180.684 61.606 182.11 60.49C183.598 59.312 185.055 57.855 186.481 56.119C187.907 54.321 189.24 52.43 190.48 50.446C190.604 49.888 190.728 49.206 190.852 48.4C191.038 47.594 191.224 46.788 191.41 45.982C191.658 45.052 192.123 44.06 192.805 43.006C193.549 41.952 194.696 41.425 196.246 41.425C196.618 41.425 196.959 41.456 197.269 41.518C197.641 41.518 198.044 41.58 198.478 41.704C198.478 42.696 198.168 44.556 197.548 47.284C196.99 49.95 196.153 53.081 195.037 56.677C193.983 60.211 192.743 63.838 191.317 67.558C194.107 66.442 196.897 64.644 199.687 62.164C202.539 59.622 204.833 56.15 206.569 51.748L207.871 52.864C206.941 55.84 205.515 58.444 203.593 60.676C201.733 62.908 199.625 64.83 197.269 66.442C194.913 68.054 192.557 69.387 190.201 70.441C188.589 74.409 186.822 78.098 184.9 81.508C182.978 84.98 180.963 87.77 178.855 89.878C176.747 91.986 174.577 93.04 172.345 93.04ZM171.694 89.878C172.686 89.878 174.267 88.638 176.437 86.158C178.607 83.74 180.901 79.648 183.319 73.882C180.963 75.122 178.7 76.393 176.53 77.695C174.422 79.059 172.717 80.516 171.415 82.066C170.113 83.616 169.462 85.321 169.462 87.181C169.462 87.739 169.617 88.328 169.927 88.948C170.299 89.568 170.888 89.878 171.694 89.878ZM250.125 75.091C245.661 75.091 242.003 73.975 239.151 71.743C236.361 69.573 234.315 66.752 233.013 63.28C231.773 59.746 231.153 56.088 231.153 52.306C231.153 47.408 231.897 42.479 233.385 37.519C234.873 32.559 236.919 27.847 239.523 23.383C242.127 18.919 245.072 14.951 248.358 11.479C251.706 7.945 255.209 5.186 258.867 3.202C262.587 1.156 266.245 0.132996 269.841 0.132996C272.445 0.132996 274.584 0.752996 276.258 1.99299C277.932 3.233 278.769 5.341 278.769 8.317C278.769 10.115 278.459 12.161 277.839 14.455C277.219 16.687 276.351 18.857 275.235 20.965C274.181 23.073 273.003 24.809 271.701 26.173C270.399 27.537 269.097 28.219 267.795 28.219C267.237 28.219 266.648 28.064 266.028 27.754C265.47 27.382 264.974 26.731 264.54 25.801C265.47 24.747 266.493 23.445 267.609 21.895C268.787 20.345 269.903 18.702 270.957 16.966C272.073 15.23 272.941 13.525 273.561 11.851C274.243 10.115 274.584 8.627 274.584 7.387C274.584 6.147 274.243 5.186 273.561 4.504C272.879 3.76 271.732 3.388 270.12 3.388C267.454 3.388 264.664 4.442 261.75 6.55C258.898 8.658 256.108 11.51 253.38 15.106C250.714 18.64 248.296 22.608 246.126 27.01C244.018 31.412 242.313 35.907 241.011 40.495C239.771 45.083 239.151 49.454 239.151 53.608C239.151 56.646 239.585 59.529 240.453 62.257C241.321 64.985 242.747 67.186 244.731 68.86C246.715 70.596 249.257 71.464 252.357 71.464C255.643 71.464 258.929 70.534 262.215 68.674C265.501 66.814 268.508 64.365 271.236 61.327C274.026 58.289 276.227 55.034 277.839 51.562L279.513 52.678C277.405 56.77 274.863 60.521 271.887 63.931C268.973 67.279 265.687 69.976 262.029 72.022C258.371 74.068 254.403 75.091 250.125 75.091ZM280.153 70.534C278.913 70.534 277.952 69.511 277.27 67.465C276.65 65.481 276.34 63.187 276.34 60.583C276.34 57.669 276.805 54.166 277.735 50.074C278.727 45.982 280.029 41.704 281.641 37.24C283.315 32.714 285.144 28.312 287.128 24.034C289.174 19.694 291.251 15.757 293.359 12.223C295.467 8.689 297.451 5.868 299.311 3.76C301.233 1.652 302.907 0.597996 304.333 0.597996C305.511 0.597996 306.348 1.28 306.844 2.644C307.402 4.008 307.681 5.372 307.681 6.736C307.681 8.41 307.278 10.487 306.472 12.967C305.728 15.447 304.674 18.113 303.31 20.965C301.946 23.755 300.365 26.514 298.567 29.242C296.769 31.908 294.785 34.388 292.615 36.682C290.507 38.914 288.368 40.681 286.198 41.983C285.392 43.905 284.741 45.92 284.245 48.028C283.749 50.136 283.377 52.182 283.129 54.166C282.943 56.088 282.85 57.855 282.85 59.467C282.85 60.025 282.85 60.552 282.85 61.048C282.912 61.482 282.943 61.885 282.943 62.257C283.625 60.459 284.4 58.506 285.268 56.398C286.136 54.29 287.128 52.213 288.244 50.167C289.36 48.121 290.6 46.261 291.964 44.587C293.328 42.913 294.816 41.58 296.428 40.588C298.04 39.534 299.838 39.007 301.822 39.007C303.682 39.007 305.139 39.472 306.193 40.402C307.247 41.27 308.022 42.355 308.518 43.657C309.014 44.959 309.262 46.292 309.262 47.656C309.262 49.64 308.921 51.531 308.239 53.329C307.619 55.065 306.968 56.739 306.286 58.351C305.604 59.963 305.263 61.513 305.263 63.001C305.263 64.241 305.511 65.109 306.007 65.605C306.565 66.101 307.216 66.349 307.96 66.349C309.386 66.349 310.967 65.667 312.703 64.303C314.501 62.939 316.268 61.141 318.004 58.909C319.802 56.615 321.352 54.135 322.654 51.469L323.956 52.771C322.592 55.809 320.949 58.599 319.027 61.141C317.167 63.621 315.121 65.574 312.889 67C310.657 68.488 308.27 69.232 305.728 69.232C303.558 69.232 301.884 68.643 300.706 67.465C299.59 66.349 299.032 64.923 299.032 63.187C299.032 61.885 299.28 60.428 299.776 58.816C300.272 57.204 300.737 55.592 301.171 53.98C301.667 52.306 301.915 50.756 301.915 49.33C301.915 47.718 301.574 46.602 300.892 45.982C300.21 45.362 299.373 45.052 298.381 45.052C296.831 45.052 295.436 45.672 294.196 46.912C292.956 48.09 291.84 49.671 290.848 51.655C289.856 53.577 288.895 55.623 287.965 57.793C287.097 59.963 286.229 62.009 285.361 63.931C284.555 65.853 283.718 67.434 282.85 68.674C282.044 69.914 281.145 70.534 280.153 70.534ZM287.593 37.612C289.329 36.248 290.972 34.543 292.522 32.497C294.134 30.389 295.622 28.188 296.986 25.894C298.35 23.6 299.559 21.368 300.613 19.198C301.729 16.966 302.566 14.951 303.124 13.153C303.744 11.355 304.054 10.022 304.054 9.154C304.054 8.906 304.023 8.751 303.961 8.689C303.961 8.627 303.93 8.565 303.868 8.503C303.434 8.503 302.566 9.34 301.264 11.014C299.962 12.626 298.474 14.827 296.8 17.617C295.126 20.345 293.452 23.445 291.778 26.917C290.166 30.389 288.771 33.954 287.593 37.612ZM337.108 69.418C334.938 69.418 333.202 68.829 331.9 67.651C330.66 66.535 330.04 65.047 330.04 63.187C330.04 61.327 330.474 59.405 331.342 57.421C332.21 55.375 333.047 53.36 333.853 51.376C334.721 49.392 335.155 47.625 335.155 46.075C335.155 44.277 334.628 42.913 333.574 41.983C332.52 40.991 331.373 40.123 330.133 39.379C328.769 42.913 327.281 46.323 325.669 49.609C324.057 52.833 322.755 55.313 321.763 57.049L320.74 55.096C321.608 53.484 322.724 51.159 324.088 48.121C325.514 45.021 326.909 41.549 328.273 37.705C327.653 37.085 327.343 36.31 327.343 35.38C327.343 33.582 327.839 32.063 328.831 30.823C329.885 29.583 330.722 28.963 331.342 28.963C332.086 28.963 332.52 29.304 332.644 29.986C332.83 30.606 332.923 31.071 332.923 31.381C332.923 31.691 332.768 32.28 332.458 33.148C332.148 34.016 331.962 34.574 331.9 34.822C331.962 35.628 332.458 36.403 333.388 37.147C334.38 37.829 335.496 38.604 336.736 39.472C338.038 40.34 339.154 41.425 340.084 42.727C341.076 44.029 341.572 45.672 341.572 47.656C341.572 49.454 341.169 51.314 340.363 53.236C339.619 55.158 338.844 56.956 338.038 58.63C337.294 60.304 336.922 61.792 336.922 63.094C336.922 64.086 337.17 64.768 337.666 65.14C338.224 65.45 338.844 65.605 339.526 65.605C341.014 65.605 342.533 65.171 344.083 64.303C345.695 63.373 347.245 62.195 348.733 60.769C350.283 59.343 351.647 57.855 352.825 56.305C354.003 54.693 354.871 53.205 355.429 51.841L357.01 53.05C355.832 55.654 354.189 58.227 352.081 60.769C349.973 63.311 347.617 65.388 345.013 67C342.471 68.612 339.836 69.418 337.108 69.418ZM360.408 69.511C357.866 69.511 355.975 68.736 354.735 67.186C353.495 65.636 352.875 63.776 352.875 61.606C352.875 60.18 353.123 58.382 353.619 56.212C354.177 54.042 354.89 51.779 355.758 49.423C356.626 47.005 357.618 44.742 358.734 42.634C359.912 40.526 361.152 38.821 362.454 37.519C363.818 36.155 365.151 35.473 366.453 35.473C367.073 35.473 367.6 35.659 368.034 36.031C368.468 36.403 368.685 36.961 368.685 37.705C368.685 38.449 368.189 39.658 367.197 41.332C366.267 43.006 365.151 44.928 363.849 47.098C362.609 49.206 361.493 51.438 360.501 53.794C359.571 56.15 359.106 58.382 359.106 60.49C359.106 62.66 359.447 64.117 360.129 64.861C360.873 65.543 361.989 65.884 363.477 65.884C365.585 65.884 367.848 64.83 370.266 62.722C372.684 60.614 375.226 56.925 377.892 51.655L378.915 52.771C376.993 58.103 374.358 62.226 371.01 65.14C367.662 68.054 364.128 69.511 360.408 69.511ZM371.475 27.196C370.421 27.196 369.46 26.948 368.592 26.452C367.786 25.894 367.383 25.057 367.383 23.941C367.383 22.577 368.158 21.399 369.708 20.407C371.258 19.415 372.808 18.919 374.358 18.919C375.35 18.919 376.156 19.136 376.776 19.57C377.458 20.004 377.799 20.81 377.799 21.988C377.799 23.166 377.117 24.344 375.753 25.522C374.451 26.638 373.025 27.196 371.475 27.196ZM386.094 71.743C383.118 71.743 380.731 71.092 378.933 69.79C377.197 68.55 375.957 67 375.213 65.14C374.469 63.218 374.097 61.296 374.097 59.374C374.097 57.514 374.345 56.088 374.841 55.096C375.337 54.104 375.926 53.391 376.608 52.957C377.352 52.461 378.034 52.089 378.654 51.841C379.336 51.593 379.832 51.314 380.142 51.004C381.878 49.144 383.521 47.129 385.071 44.959C386.683 42.727 388.078 40.34 389.256 37.798V36.775C389.256 34.419 389.659 32.745 390.465 31.753C391.271 30.761 392.139 30.265 393.069 30.265C393.627 30.265 394.03 30.42 394.278 30.73C394.588 30.978 394.774 31.288 394.836 31.66C394.836 32.032 394.743 32.528 394.557 33.148C394.371 33.768 394.278 34.574 394.278 35.566C394.278 37.55 394.681 39.751 395.487 42.169C396.355 44.525 397.192 47.036 397.998 49.702C398.866 52.306 399.3 55.034 399.3 57.886C399.3 58.63 399.238 59.374 399.114 60.118C399.052 60.862 398.959 61.544 398.835 62.164C400.881 61.73 402.865 60.738 404.787 59.188C406.709 57.576 408.538 55.065 410.274 51.655L411.204 52.585C410.026 55.995 408.259 58.661 405.903 60.583C403.609 62.443 401.036 63.621 398.184 64.117C397.192 66.721 395.611 68.643 393.441 69.883C391.271 71.123 388.822 71.743 386.094 71.743ZM386.001 68.209C386.931 68.209 387.985 67.93 389.163 67.372C390.341 66.876 391.24 65.729 391.86 63.931C389.318 63.435 387.024 62.443 384.978 60.955C382.932 59.405 381.413 57.886 380.421 56.398C379.181 56.46 378.561 57.452 378.561 59.374C378.561 61.544 379.212 63.559 380.514 65.419C381.816 67.279 383.645 68.209 386.001 68.209ZM392.418 62.071C392.542 61.513 392.635 60.924 392.697 60.304C392.759 59.622 392.79 58.909 392.79 58.165C392.79 55.313 392.418 52.461 391.674 49.609C390.992 46.757 390.372 44.029 389.814 41.425C388.512 43.595 387.086 45.765 385.536 47.935C383.986 50.105 382.498 51.903 381.072 53.329C382.064 55.189 383.521 56.956 385.443 58.63C387.365 60.304 389.69 61.451 392.418 62.071ZM416.289 71.278C413.623 71.278 411.515 70.472 409.965 68.86C408.477 67.31 407.733 64.985 407.733 61.885C407.733 59.219 408.229 55.933 409.221 52.027C410.213 48.059 411.484 43.998 413.034 39.844C412.476 39.72 411.918 39.627 411.36 39.565C410.802 39.441 410.244 39.286 409.686 39.1V37.054C410.368 37.116 411.05 37.178 411.732 37.24C412.414 37.302 413.158 37.364 413.964 37.426C415.266 34.078 416.661 30.854 418.149 27.754C419.637 24.654 421.125 21.895 422.613 19.477C424.101 16.997 425.496 15.044 426.798 13.618C428.162 12.192 429.34 11.479 430.332 11.479C430.828 11.479 431.293 11.665 431.727 12.037C432.223 12.409 432.471 12.967 432.471 13.711C432.471 14.827 431.82 16.563 430.518 18.919C429.216 21.275 427.604 24.065 425.682 27.289C423.822 30.513 421.993 33.985 420.195 37.705C420.753 37.705 421.311 37.705 421.869 37.705C422.427 37.705 422.954 37.705 423.45 37.705C425.744 37.705 428.007 37.674 430.239 37.612C432.471 37.55 434.734 37.395 437.028 37.147V39.286C433.618 39.596 430.549 39.844 427.821 40.03C425.093 40.216 422.582 40.34 420.288 40.402C420.04 40.402 419.823 40.402 419.637 40.402C419.451 40.402 419.234 40.402 418.986 40.402C417.622 43.564 416.444 46.85 415.452 50.26C414.46 53.608 413.964 56.894 413.964 60.118C413.964 62.722 414.367 64.582 415.173 65.698C415.979 66.814 417.281 67.372 419.079 67.372C422.303 67.372 425.465 65.977 428.565 63.187C431.727 60.335 434.517 56.46 436.935 51.562L438.144 52.492C436.594 56.026 434.672 59.219 432.378 62.071C430.084 64.923 427.542 67.155 424.752 68.767C422.024 70.441 419.203 71.278 416.289 71.278ZM482.238 69.883C480.006 69.883 478.363 69.201 477.309 67.837C476.255 66.473 475.728 64.83 475.728 62.908C475.728 61.42 475.945 59.932 476.379 58.444C476.875 56.894 477.34 55.406 477.774 53.98C478.208 52.492 478.425 51.19 478.425 50.074C478.425 48.896 478.177 48.09 477.681 47.656C477.185 47.16 476.596 46.912 475.914 46.912C474.426 46.912 472.752 48.09 470.892 50.446C469.032 52.74 466.676 56.057 463.824 60.397C462.832 61.885 461.964 63.404 461.22 64.954C460.476 66.504 459.794 67.868 459.174 69.046C458.616 69.046 457.934 68.984 457.128 68.86C456.384 68.736 455.702 68.519 455.082 68.209C454.462 67.899 454.152 67.496 454.152 67C454.152 66.566 454.431 65.543 454.989 63.931C455.609 62.257 456.291 60.335 457.035 58.165C457.841 55.995 458.554 53.825 459.174 51.655C459.794 49.423 460.104 47.532 460.104 45.982C460.104 44.99 459.918 44.184 459.546 43.564C459.236 42.944 458.678 42.634 457.872 42.634C456.508 42.634 454.865 43.44 452.943 45.052C451.083 46.664 449.13 48.803 447.084 51.469C445.1 54.073 443.178 56.956 441.318 60.118C439.52 63.218 438.063 66.349 436.947 69.511C436.389 69.511 435.676 69.387 434.808 69.139C433.94 68.953 433.196 68.674 432.576 68.302C431.894 67.992 431.553 67.682 431.553 67.372C431.553 67.124 431.863 66.101 432.483 64.303C433.041 62.505 433.692 60.335 434.436 57.793C435.18 55.189 435.893 52.554 436.575 49.888C437.257 47.222 437.66 44.897 437.784 42.913C438.094 42.355 438.714 41.859 439.644 41.425C440.574 40.929 441.473 40.681 442.341 40.681C443.209 40.681 443.891 40.929 444.387 41.425C444.883 41.921 445.131 42.572 445.131 43.378C445.131 44.122 444.914 45.331 444.48 47.005C444.108 48.679 443.643 50.57 443.085 52.678C444.325 50.756 445.72 48.834 447.27 46.912C448.82 44.928 450.432 43.13 452.106 41.518C453.78 39.906 455.454 38.604 457.128 37.612C458.864 36.62 460.538 36.124 462.15 36.124C464.196 36.124 465.591 36.868 466.335 38.356C467.079 39.844 467.451 41.549 467.451 43.471C467.451 44.773 467.327 46.137 467.079 47.563C466.831 48.927 466.521 50.229 466.149 51.469C465.777 52.709 465.405 53.794 465.033 54.724C466.273 52.554 467.637 50.508 469.125 48.586C470.675 46.602 472.349 44.99 474.147 43.75C475.945 42.51 477.836 41.89 479.82 41.89C481.928 41.89 483.385 42.541 484.191 43.843C485.059 45.083 485.493 46.54 485.493 48.214C485.493 49.826 485.214 51.562 484.656 53.422C484.098 55.282 483.54 57.08 482.982 58.816C482.424 60.552 482.145 62.04 482.145 63.28C482.145 64.024 482.331 64.706 482.703 65.326C483.075 65.946 483.757 66.256 484.749 66.256C486.485 66.256 488.097 65.481 489.585 63.931C491.135 62.319 492.561 60.397 493.863 58.165C495.227 55.871 496.374 53.67 497.304 51.562L498.513 53.143C497.521 55.685 496.25 58.258 494.7 60.862C493.15 63.466 491.321 65.605 489.213 67.279C487.167 69.015 484.842 69.883 482.238 69.883ZM500.128 71.371C498.144 71.371 496.47 70.72 495.106 69.418C493.68 68.116 492.967 66.132 492.967 63.466C492.967 61.296 493.463 58.94 494.455 56.398C495.447 53.794 496.811 51.252 498.547 48.772C500.283 46.23 502.236 43.936 504.406 41.89C506.638 39.844 508.994 38.201 511.474 36.961C513.954 35.721 516.434 35.101 518.914 35.101C521.394 35.101 523.471 35.752 525.145 37.054C526.881 38.356 527.749 40.092 527.749 42.262C527.749 43.812 527.253 44.897 526.261 45.517C525.331 46.137 524.153 46.416 522.727 46.354C522.851 45.796 522.944 45.238 523.006 44.68C523.13 44.122 523.192 43.564 523.192 43.006C523.192 41.642 522.882 40.464 522.262 39.472C521.642 38.418 520.495 37.891 518.821 37.891C517.085 37.891 515.318 38.511 513.52 39.751C511.722 40.929 509.986 42.51 508.312 44.494C506.7 46.478 505.243 48.648 503.941 51.004C502.639 53.298 501.616 55.561 500.872 57.793C500.128 60.025 499.756 62.04 499.756 63.838C499.756 66.132 500.531 67.279 502.081 67.279C503.507 67.279 505.057 66.597 506.731 65.233C508.467 63.869 510.203 62.164 511.939 60.118C513.737 58.01 515.442 55.84 517.054 53.608C518.666 51.376 520.092 49.392 521.332 47.656C521.518 47.284 521.704 47.098 521.89 47.098C522.2 47.16 522.665 47.284 523.285 47.47C523.905 47.656 524.463 47.935 524.959 48.307C525.455 48.679 525.703 49.144 525.703 49.702C525.703 50.26 525.424 51.035 524.866 52.027C524.37 52.957 523.75 54.042 523.006 55.282C522.324 56.46 521.704 57.669 521.146 58.909C520.65 60.149 520.402 61.296 520.402 62.35C520.402 63.28 520.619 64.179 521.053 65.047C521.549 65.853 522.324 66.256 523.378 66.256C524.99 66.256 527.16 65.078 529.888 62.722C532.616 60.304 535.375 56.584 538.165 51.562L539.374 52.771C538.01 56.119 536.305 59.095 534.259 61.699C532.213 64.241 530.012 66.225 527.656 67.651C525.362 69.077 523.068 69.79 520.774 69.79C518.418 69.79 516.651 69.046 515.473 67.558C514.357 66.132 513.799 64.582 513.799 62.908C513.799 62.598 513.799 62.288 513.799 61.978C513.861 61.668 513.923 61.327 513.985 60.955C511.381 64.365 508.994 66.938 506.824 68.674C504.654 70.472 502.422 71.371 500.128 71.371ZM546.391 71.743C543.415 71.743 541.028 71.092 539.23 69.79C537.494 68.55 536.254 67 535.51 65.14C534.766 63.218 534.394 61.296 534.394 59.374C534.394 57.514 534.642 56.088 535.138 55.096C535.634 54.104 536.223 53.391 536.905 52.957C537.649 52.461 538.331 52.089 538.951 51.841C539.633 51.593 540.129 51.314 540.439 51.004C542.175 49.144 543.818 47.129 545.368 44.959C546.98 42.727 548.375 40.34 549.553 37.798V36.775C549.553 34.419 549.956 32.745 550.762 31.753C551.568 30.761 552.436 30.265 553.366 30.265C553.924 30.265 554.327 30.42 554.575 30.73C554.885 30.978 555.071 31.288 555.133 31.66C555.133 32.032 555.04 32.528 554.854 33.148C554.668 33.768 554.575 34.574 554.575 35.566C554.575 37.55 554.978 39.751 555.784 42.169C556.652 44.525 557.489 47.036 558.295 49.702C559.163 52.306 559.597 55.034 559.597 57.886C559.597 58.63 559.535 59.374 559.411 60.118C559.349 60.862 559.256 61.544 559.132 62.164C561.178 61.73 563.162 60.738 565.084 59.188C567.006 57.576 568.835 55.065 570.571 51.655L571.501 52.585C570.323 55.995 568.556 58.661 566.2 60.583C563.906 62.443 561.333 63.621 558.481 64.117C557.489 66.721 555.908 68.643 553.738 69.883C551.568 71.123 549.119 71.743 546.391 71.743ZM546.298 68.209C547.228 68.209 548.282 67.93 549.46 67.372C550.638 66.876 551.537 65.729 552.157 63.931C549.615 63.435 547.321 62.443 545.275 60.955C543.229 59.405 541.71 57.886 540.718 56.398C539.478 56.46 538.858 57.452 538.858 59.374C538.858 61.544 539.509 63.559 540.811 65.419C542.113 67.279 543.942 68.209 546.298 68.209ZM552.715 62.071C552.839 61.513 552.932 60.924 552.994 60.304C553.056 59.622 553.087 58.909 553.087 58.165C553.087 55.313 552.715 52.461 551.971 49.609C551.289 46.757 550.669 44.029 550.111 41.425C548.809 43.595 547.383 45.765 545.833 47.935C544.283 50.105 542.795 51.903 541.369 53.329C542.361 55.189 543.818 56.956 545.74 58.63C547.662 60.304 549.987 61.451 552.715 62.071Z" fill="white"></path> </svg> 